<mxfile host="app.diagrams.net" modified="2024-06-06T11:52:40.558Z" agent="Mozilla/5.0 (Windows NT 10.0; Win64; x64) AppleWebKit/537.36 (KHTML, like Gecko) Chrome/125.0.0.0 Safari/537.36" etag="uHwheswqXujBcascE0AR" version="21.6.9" type="device">
  <diagram id="C5RBs43oDa-KdzZeNtuy" name="Page-1">
    <mxGraphModel dx="1173" dy="506" grid="1" gridSize="10" guides="1" tooltips="1" connect="1" arrows="1" fold="1" page="1" pageScale="1" pageWidth="827" pageHeight="1169" math="0" shadow="0">
      <root>
        <mxCell id="WIyWlLk6GJQsqaUBKTNV-0" />
        <mxCell id="WIyWlLk6GJQsqaUBKTNV-1" parent="WIyWlLk6GJQsqaUBKTNV-0" />
        <mxCell id="nEktA7uAnN124YaLQO_1-41" style="edgeStyle=orthogonalEdgeStyle;rounded=0;orthogonalLoop=1;jettySize=auto;html=1;entryX=0.5;entryY=1;entryDx=0;entryDy=0;" edge="1" parent="WIyWlLk6GJQsqaUBKTNV-1" source="nEktA7uAnN124YaLQO_1-1" target="nEktA7uAnN124YaLQO_1-38">
          <mxGeometry relative="1" as="geometry" />
        </mxCell>
        <mxCell id="nEktA7uAnN124YaLQO_1-71" style="edgeStyle=orthogonalEdgeStyle;rounded=0;orthogonalLoop=1;jettySize=auto;html=1;entryX=0.5;entryY=0;entryDx=0;entryDy=0;" edge="1" parent="WIyWlLk6GJQsqaUBKTNV-1" source="nEktA7uAnN124YaLQO_1-1" target="nEktA7uAnN124YaLQO_1-69">
          <mxGeometry relative="1" as="geometry" />
        </mxCell>
        <mxCell id="nEktA7uAnN124YaLQO_1-1" value="Template" style="rounded=1;whiteSpace=wrap;html=1;absoluteArcSize=1;arcSize=14;strokeWidth=2;" vertex="1" parent="WIyWlLk6GJQsqaUBKTNV-1">
          <mxGeometry x="363" y="460" width="100" height="100" as="geometry" />
        </mxCell>
        <mxCell id="nEktA7uAnN124YaLQO_1-10" style="edgeStyle=orthogonalEdgeStyle;rounded=0;orthogonalLoop=1;jettySize=auto;html=1;" edge="1" parent="WIyWlLk6GJQsqaUBKTNV-1" source="nEktA7uAnN124YaLQO_1-3" target="nEktA7uAnN124YaLQO_1-1">
          <mxGeometry relative="1" as="geometry" />
        </mxCell>
        <mxCell id="nEktA7uAnN124YaLQO_1-3" value="Header" style="rounded=1;whiteSpace=wrap;html=1;absoluteArcSize=1;arcSize=14;strokeWidth=2;" vertex="1" parent="WIyWlLk6GJQsqaUBKTNV-1">
          <mxGeometry x="169" y="460" width="100" height="100" as="geometry" />
        </mxCell>
        <mxCell id="nEktA7uAnN124YaLQO_1-11" style="edgeStyle=orthogonalEdgeStyle;rounded=0;orthogonalLoop=1;jettySize=auto;html=1;entryX=1;entryY=0.5;entryDx=0;entryDy=0;" edge="1" parent="WIyWlLk6GJQsqaUBKTNV-1" source="nEktA7uAnN124YaLQO_1-4" target="nEktA7uAnN124YaLQO_1-1">
          <mxGeometry relative="1" as="geometry" />
        </mxCell>
        <mxCell id="nEktA7uAnN124YaLQO_1-4" value="Footer" style="rounded=1;whiteSpace=wrap;html=1;absoluteArcSize=1;arcSize=14;strokeWidth=2;" vertex="1" parent="WIyWlLk6GJQsqaUBKTNV-1">
          <mxGeometry x="569" y="460" width="100" height="100" as="geometry" />
        </mxCell>
        <mxCell id="nEktA7uAnN124YaLQO_1-6" style="edgeStyle=orthogonalEdgeStyle;rounded=0;orthogonalLoop=1;jettySize=auto;html=1;entryX=0.5;entryY=0;entryDx=0;entryDy=0;" edge="1" parent="WIyWlLk6GJQsqaUBKTNV-1" source="nEktA7uAnN124YaLQO_1-5" target="nEktA7uAnN124YaLQO_1-3">
          <mxGeometry relative="1" as="geometry" />
        </mxCell>
        <mxCell id="nEktA7uAnN124YaLQO_1-5" value="Date" style="rounded=0;whiteSpace=wrap;html=1;" vertex="1" parent="WIyWlLk6GJQsqaUBKTNV-1">
          <mxGeometry x="159" y="360" width="120" height="60" as="geometry" />
        </mxCell>
        <mxCell id="nEktA7uAnN124YaLQO_1-13" style="edgeStyle=orthogonalEdgeStyle;rounded=0;orthogonalLoop=1;jettySize=auto;html=1;entryX=0;entryY=0.5;entryDx=0;entryDy=0;" edge="1" parent="WIyWlLk6GJQsqaUBKTNV-1" source="nEktA7uAnN124YaLQO_1-8" target="nEktA7uAnN124YaLQO_1-3">
          <mxGeometry relative="1" as="geometry">
            <Array as="points">
              <mxPoint x="89" y="435" />
              <mxPoint x="149" y="435" />
              <mxPoint x="149" y="510" />
            </Array>
          </mxGeometry>
        </mxCell>
        <mxCell id="nEktA7uAnN124YaLQO_1-8" value="Recommended Date" style="rounded=0;whiteSpace=wrap;html=1;" vertex="1" parent="WIyWlLk6GJQsqaUBKTNV-1">
          <mxGeometry x="9" y="400" width="120" height="60" as="geometry" />
        </mxCell>
        <mxCell id="nEktA7uAnN124YaLQO_1-14" style="edgeStyle=orthogonalEdgeStyle;rounded=0;orthogonalLoop=1;jettySize=auto;html=1;entryX=0;entryY=0.5;entryDx=0;entryDy=0;" edge="1" parent="WIyWlLk6GJQsqaUBKTNV-1" source="nEktA7uAnN124YaLQO_1-12" target="nEktA7uAnN124YaLQO_1-3">
          <mxGeometry relative="1" as="geometry" />
        </mxCell>
        <mxCell id="nEktA7uAnN124YaLQO_1-12" value="Certificate Number" style="rounded=0;whiteSpace=wrap;html=1;" vertex="1" parent="WIyWlLk6GJQsqaUBKTNV-1">
          <mxGeometry x="9" y="480" width="120" height="60" as="geometry" />
        </mxCell>
        <mxCell id="nEktA7uAnN124YaLQO_1-16" style="edgeStyle=orthogonalEdgeStyle;rounded=0;orthogonalLoop=1;jettySize=auto;html=1;entryX=0;entryY=0.5;entryDx=0;entryDy=0;" edge="1" parent="WIyWlLk6GJQsqaUBKTNV-1" source="nEktA7uAnN124YaLQO_1-15" target="nEktA7uAnN124YaLQO_1-3">
          <mxGeometry relative="1" as="geometry" />
        </mxCell>
        <mxCell id="nEktA7uAnN124YaLQO_1-15" value="DIO Number" style="rounded=0;whiteSpace=wrap;html=1;" vertex="1" parent="WIyWlLk6GJQsqaUBKTNV-1">
          <mxGeometry x="9" y="550" width="120" height="60" as="geometry" />
        </mxCell>
        <mxCell id="nEktA7uAnN124YaLQO_1-18" style="edgeStyle=orthogonalEdgeStyle;rounded=0;orthogonalLoop=1;jettySize=auto;html=1;entryX=0.5;entryY=1;entryDx=0;entryDy=0;" edge="1" parent="WIyWlLk6GJQsqaUBKTNV-1" source="nEktA7uAnN124YaLQO_1-17" target="nEktA7uAnN124YaLQO_1-3">
          <mxGeometry relative="1" as="geometry" />
        </mxCell>
        <mxCell id="nEktA7uAnN124YaLQO_1-17" value="Device Name" style="rounded=0;whiteSpace=wrap;html=1;" vertex="1" parent="WIyWlLk6GJQsqaUBKTNV-1">
          <mxGeometry x="159" y="620" width="120" height="60" as="geometry" />
        </mxCell>
        <mxCell id="nEktA7uAnN124YaLQO_1-24" style="edgeStyle=orthogonalEdgeStyle;rounded=0;orthogonalLoop=1;jettySize=auto;html=1;entryX=0.5;entryY=0;entryDx=0;entryDy=0;" edge="1" parent="WIyWlLk6GJQsqaUBKTNV-1" source="nEktA7uAnN124YaLQO_1-19" target="nEktA7uAnN124YaLQO_1-4">
          <mxGeometry relative="1" as="geometry" />
        </mxCell>
        <mxCell id="nEktA7uAnN124YaLQO_1-19" value="Calibrated by" style="rounded=0;whiteSpace=wrap;html=1;" vertex="1" parent="WIyWlLk6GJQsqaUBKTNV-1">
          <mxGeometry x="559" y="360" width="120" height="60" as="geometry" />
        </mxCell>
        <mxCell id="nEktA7uAnN124YaLQO_1-25" style="edgeStyle=orthogonalEdgeStyle;rounded=0;orthogonalLoop=1;jettySize=auto;html=1;exitX=0;exitY=0.5;exitDx=0;exitDy=0;entryX=1;entryY=0.5;entryDx=0;entryDy=0;" edge="1" parent="WIyWlLk6GJQsqaUBKTNV-1" source="nEktA7uAnN124YaLQO_1-21" target="nEktA7uAnN124YaLQO_1-4">
          <mxGeometry relative="1" as="geometry">
            <Array as="points">
              <mxPoint x="689" y="450" />
              <mxPoint x="689" y="510" />
            </Array>
          </mxGeometry>
        </mxCell>
        <mxCell id="nEktA7uAnN124YaLQO_1-21" value="Checked by" style="rounded=0;whiteSpace=wrap;html=1;" vertex="1" parent="WIyWlLk6GJQsqaUBKTNV-1">
          <mxGeometry x="699" y="420" width="120" height="60" as="geometry" />
        </mxCell>
        <mxCell id="nEktA7uAnN124YaLQO_1-26" style="edgeStyle=orthogonalEdgeStyle;rounded=0;orthogonalLoop=1;jettySize=auto;html=1;entryX=1;entryY=0.5;entryDx=0;entryDy=0;" edge="1" parent="WIyWlLk6GJQsqaUBKTNV-1" source="nEktA7uAnN124YaLQO_1-22" target="nEktA7uAnN124YaLQO_1-4">
          <mxGeometry relative="1" as="geometry">
            <Array as="points">
              <mxPoint x="689" y="560" />
              <mxPoint x="689" y="510" />
            </Array>
          </mxGeometry>
        </mxCell>
        <mxCell id="nEktA7uAnN124YaLQO_1-22" value="Scientist-in-charge" style="rounded=0;whiteSpace=wrap;html=1;" vertex="1" parent="WIyWlLk6GJQsqaUBKTNV-1">
          <mxGeometry x="699" y="530" width="120" height="60" as="geometry" />
        </mxCell>
        <mxCell id="nEktA7uAnN124YaLQO_1-27" style="edgeStyle=orthogonalEdgeStyle;rounded=0;orthogonalLoop=1;jettySize=auto;html=1;entryX=0.5;entryY=1;entryDx=0;entryDy=0;" edge="1" parent="WIyWlLk6GJQsqaUBKTNV-1" source="nEktA7uAnN124YaLQO_1-23" target="nEktA7uAnN124YaLQO_1-4">
          <mxGeometry relative="1" as="geometry" />
        </mxCell>
        <mxCell id="nEktA7uAnN124YaLQO_1-23" value="Issued by" style="rounded=0;whiteSpace=wrap;html=1;" vertex="1" parent="WIyWlLk6GJQsqaUBKTNV-1">
          <mxGeometry x="559" y="620" width="120" height="60" as="geometry" />
        </mxCell>
        <mxCell id="nEktA7uAnN124YaLQO_1-38" value="Page 1" style="rounded=1;whiteSpace=wrap;html=1;absoluteArcSize=1;arcSize=14;strokeWidth=2;" vertex="1" parent="WIyWlLk6GJQsqaUBKTNV-1">
          <mxGeometry x="363" y="260" width="100" height="100" as="geometry" />
        </mxCell>
        <mxCell id="nEktA7uAnN124YaLQO_1-60" style="edgeStyle=orthogonalEdgeStyle;rounded=0;orthogonalLoop=1;jettySize=auto;html=1;entryX=0.5;entryY=0;entryDx=0;entryDy=0;" edge="1" parent="WIyWlLk6GJQsqaUBKTNV-1" source="nEktA7uAnN124YaLQO_1-42" target="nEktA7uAnN124YaLQO_1-38">
          <mxGeometry relative="1" as="geometry">
            <Array as="points">
              <mxPoint x="73" y="230" />
              <mxPoint x="413" y="230" />
            </Array>
          </mxGeometry>
        </mxCell>
        <mxCell id="nEktA7uAnN124YaLQO_1-42" value="Calibrated for" style="rounded=0;whiteSpace=wrap;html=1;" vertex="1" parent="WIyWlLk6GJQsqaUBKTNV-1">
          <mxGeometry x="13" y="136" width="120" height="60" as="geometry" />
        </mxCell>
        <mxCell id="nEktA7uAnN124YaLQO_1-59" style="edgeStyle=orthogonalEdgeStyle;rounded=0;orthogonalLoop=1;jettySize=auto;html=1;entryX=0.5;entryY=0;entryDx=0;entryDy=0;" edge="1" parent="WIyWlLk6GJQsqaUBKTNV-1" source="nEktA7uAnN124YaLQO_1-44" target="nEktA7uAnN124YaLQO_1-38">
          <mxGeometry relative="1" as="geometry">
            <Array as="points">
              <mxPoint x="212" y="230" />
              <mxPoint x="413" y="230" />
            </Array>
          </mxGeometry>
        </mxCell>
        <mxCell id="nEktA7uAnN124YaLQO_1-44" value="Description" style="rounded=0;whiteSpace=wrap;html=1;" vertex="1" parent="WIyWlLk6GJQsqaUBKTNV-1">
          <mxGeometry x="152" y="136" width="120" height="60" as="geometry" />
        </mxCell>
        <mxCell id="nEktA7uAnN124YaLQO_1-57" style="edgeStyle=orthogonalEdgeStyle;rounded=0;orthogonalLoop=1;jettySize=auto;html=1;entryX=0.5;entryY=0;entryDx=0;entryDy=0;" edge="1" parent="WIyWlLk6GJQsqaUBKTNV-1" source="nEktA7uAnN124YaLQO_1-46" target="nEktA7uAnN124YaLQO_1-38">
          <mxGeometry relative="1" as="geometry">
            <Array as="points">
              <mxPoint x="352" y="230" />
              <mxPoint x="413" y="230" />
            </Array>
          </mxGeometry>
        </mxCell>
        <mxCell id="nEktA7uAnN124YaLQO_1-46" value="Environmental Conditions" style="rounded=0;whiteSpace=wrap;html=1;" vertex="1" parent="WIyWlLk6GJQsqaUBKTNV-1">
          <mxGeometry x="292" y="136" width="120" height="60" as="geometry" />
        </mxCell>
        <mxCell id="nEktA7uAnN124YaLQO_1-58" style="edgeStyle=orthogonalEdgeStyle;rounded=0;orthogonalLoop=1;jettySize=auto;html=1;entryX=0.5;entryY=0;entryDx=0;entryDy=0;" edge="1" parent="WIyWlLk6GJQsqaUBKTNV-1" source="nEktA7uAnN124YaLQO_1-48" target="nEktA7uAnN124YaLQO_1-38">
          <mxGeometry relative="1" as="geometry">
            <Array as="points">
              <mxPoint x="492" y="230" />
              <mxPoint x="413" y="230" />
            </Array>
          </mxGeometry>
        </mxCell>
        <mxCell id="nEktA7uAnN124YaLQO_1-48" value="Standards used" style="rounded=0;whiteSpace=wrap;html=1;" vertex="1" parent="WIyWlLk6GJQsqaUBKTNV-1">
          <mxGeometry x="432" y="136" width="120" height="60" as="geometry" />
        </mxCell>
        <mxCell id="nEktA7uAnN124YaLQO_1-62" style="edgeStyle=orthogonalEdgeStyle;rounded=0;orthogonalLoop=1;jettySize=auto;html=1;entryX=0.5;entryY=0;entryDx=0;entryDy=0;" edge="1" parent="WIyWlLk6GJQsqaUBKTNV-1" source="nEktA7uAnN124YaLQO_1-61" target="nEktA7uAnN124YaLQO_1-38">
          <mxGeometry relative="1" as="geometry">
            <Array as="points">
              <mxPoint x="629" y="230" />
              <mxPoint x="413" y="230" />
            </Array>
          </mxGeometry>
        </mxCell>
        <mxCell id="nEktA7uAnN124YaLQO_1-61" value="Tracability" style="rounded=0;whiteSpace=wrap;html=1;" vertex="1" parent="WIyWlLk6GJQsqaUBKTNV-1">
          <mxGeometry x="569" y="136" width="120" height="60" as="geometry" />
        </mxCell>
        <mxCell id="nEktA7uAnN124YaLQO_1-64" style="edgeStyle=orthogonalEdgeStyle;rounded=0;orthogonalLoop=1;jettySize=auto;html=1;entryX=0.5;entryY=0;entryDx=0;entryDy=0;" edge="1" parent="WIyWlLk6GJQsqaUBKTNV-1" source="nEktA7uAnN124YaLQO_1-63" target="nEktA7uAnN124YaLQO_1-38">
          <mxGeometry relative="1" as="geometry">
            <Array as="points">
              <mxPoint x="759" y="230" />
              <mxPoint x="413" y="230" />
            </Array>
          </mxGeometry>
        </mxCell>
        <mxCell id="nEktA7uAnN124YaLQO_1-63" value="Methodology of Calibration" style="rounded=0;whiteSpace=wrap;html=1;" vertex="1" parent="WIyWlLk6GJQsqaUBKTNV-1">
          <mxGeometry x="699" y="136" width="120" height="60" as="geometry" />
        </mxCell>
        <mxCell id="nEktA7uAnN124YaLQO_1-66" style="edgeStyle=orthogonalEdgeStyle;rounded=0;orthogonalLoop=1;jettySize=auto;html=1;entryX=1;entryY=0.5;entryDx=0;entryDy=0;" edge="1" parent="WIyWlLk6GJQsqaUBKTNV-1" source="nEktA7uAnN124YaLQO_1-65" target="nEktA7uAnN124YaLQO_1-38">
          <mxGeometry relative="1" as="geometry" />
        </mxCell>
        <mxCell id="nEktA7uAnN124YaLQO_1-65" value="Embedded File" style="rounded=0;whiteSpace=wrap;html=1;" vertex="1" parent="WIyWlLk6GJQsqaUBKTNV-1">
          <mxGeometry x="559" y="280" width="120" height="60" as="geometry" />
        </mxCell>
        <mxCell id="nEktA7uAnN124YaLQO_1-67" value="Tables" style="rounded=0;whiteSpace=wrap;html=1;" vertex="1" parent="WIyWlLk6GJQsqaUBKTNV-1">
          <mxGeometry x="353" y="740" width="120" height="60" as="geometry" />
        </mxCell>
        <mxCell id="nEktA7uAnN124YaLQO_1-73" style="edgeStyle=orthogonalEdgeStyle;rounded=0;orthogonalLoop=1;jettySize=auto;html=1;entryX=0.5;entryY=0;entryDx=0;entryDy=0;" edge="1" parent="WIyWlLk6GJQsqaUBKTNV-1" source="nEktA7uAnN124YaLQO_1-69" target="nEktA7uAnN124YaLQO_1-67">
          <mxGeometry relative="1" as="geometry" />
        </mxCell>
        <mxCell id="nEktA7uAnN124YaLQO_1-69" value="Page 2 to n" style="rounded=1;whiteSpace=wrap;html=1;absoluteArcSize=1;arcSize=14;strokeWidth=2;" vertex="1" parent="WIyWlLk6GJQsqaUBKTNV-1">
          <mxGeometry x="363" y="600" width="100" height="100" as="geometry" />
        </mxCell>
      </root>
    </mxGraphModel>
  </diagram>
</mxfile>
